<svg data-v-fde0c5aa="" xmlns="http://www.w3.org/2000/svg" viewBox="0 0 300 300" class="iconLeftSlogan"><!----><defs data-v-fde0c5aa=""><!----></defs><rect data-v-fde0c5aa="" fill="transparent" x="0" y="0" width="300px" height="300px" class="logo-background-square"></rect><defs data-v-fde0c5aa=""><!----></defs><g data-v-fde0c5aa="" id="594f9a6a-68e6-4b82-9662-e9d56951b441" fill="#000000" transform="matrix(3.682132638622642,0,0,3.682132638622642,135.87531256206825,103.93320940789751)"><path d="M4.12 15.81C5.47 15.82 6.83 15.37 7.95 14.45C10.50 12.35 10.88 8.55 8.76 5.99C7.59 4.55 5.85 3.79 4.12 3.79L1.12 3.79C0.97 3.79 0.84 3.92 0.84 4.06L0.84 15.47C0.84 15.67 0.97 15.81 1.12 15.81ZM7.08 7.38C8.43 9.00 8.19 11.42 6.55 12.75C5.85 13.34 4.98 13.64 4.12 13.62L3.02 13.62L3.02 5.98L4.12 5.98C5.22 5.98 6.33 6.45 7.08 7.38ZM19.07 4.79C18.24 4.13 17.11 3.78 15.78 3.78L11.96 3.78C11.80 3.78 11.68 3.91 11.68 4.06L11.68 5.18L13.83 8.69L11.68 8.69L11.68 15.53C11.68 15.68 11.80 15.81 11.96 15.81L13.59 15.81C13.75 15.81 13.86 15.68 13.86 15.53L13.86 10.89L15.81 10.89C17.12 10.88 18.26 10.54 19.07 9.88C19.89 9.23 20.36 8.30 20.36 7.34C20.36 6.36 19.89 5.43 19.07 4.79ZM14.73 5.96L15.78 5.96C17.35 5.96 18.17 6.65 18.17 7.34C18.17 7.92 17.56 8.51 16.37 8.67ZM32.06 13.62C32.93 12.57 33.45 11.24 33.45 9.79C33.45 6.47 30.74 3.78 27.43 3.78C24.11 3.78 21.41 6.47 21.41 9.79C21.41 13.10 24.11 15.81 27.43 15.81L33.38 15.81C33.56 15.81 33.71 15.68 33.71 15.54L33.71 13.89C33.71 13.75 33.56 13.62 33.38 13.62ZM23.59 9.79C23.59 7.69 25.31 5.96 27.43 5.96C29.54 5.96 31.25 7.69 31.25 9.79C31.25 11.90 29.54 13.62 27.43 13.62C25.31 13.62 23.59 11.90 23.59 9.79Z"></path></g><defs data-v-fde0c5aa=""><linearGradient data-v-fde0c5aa="" gradientTransform="rotate(25)" id="83ac5d97-db05-41d8-9803-54592f921a2e" x1="0%" y1="0%" x2="100%" y2="0%"><stop data-v-fde0c5aa="" offset="0%" stop-color="#1E0B36" stop-opacity="1"></stop><stop data-v-fde0c5aa="" offset="100%" stop-color="#CA3782" stop-opacity="1"></stop></linearGradient></defs><g data-v-fde0c5aa="" id="e9e96de7-0787-4832-b2c3-9b2150a124d3" stroke="none" fill="url(#83ac5d97-db05-41d8-9803-54592f921a2e)" transform="matrix(0.9436696546799268,0,0,0.9436696546799268,35.753486103963574,102.81651726600366)"><path d="M35.3 27.1V13h-9.9V9c0-2.5-2.3-4.5-5.1-4.5H9.6c-2.8 0-5.1 2-5.1 4.5v12c0 2.5 2.3 4.5 5.1 4.5h10.9c2.8 0 5.1-2 5.1-4.5v-4h6.3v10.1h-4.3l6 9.3 6-9.3h-4.3zM22.5 21c0 .8-.9 1.5-2.1 1.5H9.6c-1.1 0-2.1-.7-2.1-1.5V9c0-.8.9-1.5 2.1-1.5h10.9c1.1 0 2.1.7 2.1 1.5v12zM77.5 57v-5h5.8v10.6H79l6 9.3 6-9.3h-4.3V48H77.3v-5c0-2.2-1.4-3.5-3.8-3.5h-46c-2.9 0-4 1.8-4 3.5v14c0 1.6 1.1 3.5 4.1 3.5H73.7c2.4 0 3.8-1.3 3.8-3.5zm-37 .5H27.6c-1.1 0-1.1-.4-1.1-.5V43c0-.3 0-.5 1-.5h13v15zm17 0h-14v-15h14v15zm17-.5v.4s-.2.1-.7.1H60.5v-15h13.2c.6 0 .8.1.8.1s.1.1.1.4v14zM90.4 74.5H79.6c-2.8 0-5.1 2-5.1 4.5v12c0 2.5 2.3 4.5 5.1 4.5h10.9c2.8 0 5.1-2 5.1-4.5V79c-.1-2.5-2.4-4.5-5.2-4.5zM92.5 91c0 .8-.9 1.5-2.1 1.5H79.6c-1.1 0-2.1-.7-2.1-1.5V79c0-.8.9-1.5 2.1-1.5h10.9c1.1 0 2.1.7 2.1 1.5v12z"></path></g><defs data-v-fde0c5aa=""><!----></defs><g data-v-fde0c5aa="" id="cad56018-7ac7-4c95-9fac-776e955a5d52" fill="#000000" transform="matrix(0.36584258021044425,0,0,0.36584258021044425,138.82928391177725,171.14592065019002)"><path d="M0.42 3.64L0.38 3.08L4.16 3.08L4.16 3.08Q5.48 3.08 6.34 3.19L6.34 3.19L6.34 3.19Q7.16 3.29 7.85 3.69L7.85 3.69L7.85 3.69Q8.80 4.27 9.31 5.24L9.31 5.24L9.31 5.24Q9.80 6.21 9.80 7.39L9.80 7.39L9.80 7.39Q9.80 8.05 9.66 8.65L9.66 8.65L9.66 8.65Q9.50 9.29 9.11 9.98L9.11 9.98L9.11 9.98Q8.68 10.73 8.12 11.21L8.12 11.21L8.12 11.21Q7.49 11.76 6.52 12.08L6.52 12.08L6.52 12.08Q5.52 12.41 4.25 12.41L4.25 12.41L0.63 12.41L0.62 11.87L0.99 11.87L0.99 11.87Q1.51 11.87 1.61 11.79L1.61 11.79L1.61 11.79Q1.72 11.70 1.72 11.25L1.72 11.25L1.72 4.14L1.72 4.14Q1.72 3.77 1.63 3.71L1.63 3.71L1.63 3.71Q1.52 3.64 1.00 3.64L1.00 3.64L0.42 3.64ZM2.86 4.39L2.86 11.22L2.86 11.22Q2.86 11.67 3.02 11.77L3.02 11.77L3.02 11.77Q3.18 11.87 4.05 11.87L4.05 11.87L4.05 11.87Q5.10 11.87 5.89 11.61L5.89 11.61L5.89 11.61Q6.75 11.35 7.18 10.99L7.18 10.99L7.18 10.99Q7.68 10.58 7.98 10.05L7.98 10.05L7.98 10.05Q8.29 9.52 8.42 8.96L8.42 8.96L8.42 8.96Q8.54 8.41 8.54 7.82L8.54 7.82L8.54 7.82Q8.54 7.03 8.27 6.34L8.27 6.34L8.27 6.34Q8.00 5.65 7.48 5.05L7.48 5.05L7.48 5.05Q6.95 4.46 6.04 4.09L6.04 4.09L6.04 4.09Q5.11 3.73 3.95 3.73L3.95 3.73L3.43 3.73L3.43 3.73Q3.07 3.73 2.97 3.85L2.97 3.85L2.97 3.85Q2.86 3.99 2.86 4.39L2.86 4.39ZM17.79 3.64L17.77 3.08L24.99 3.08L24.99 3.08Q25.00 4.14 25.05 5.28L25.05 5.28L24.51 5.30L24.51 5.30Q24.49 4.66 24.44 4.25L24.44 4.25L24.44 4.25Q24.40 3.89 24.34 3.80L24.34 3.80L24.34 3.80Q24.29 3.71 24.17 3.69L24.17 3.69L24.17 3.69Q24.08 3.68 23.49 3.68L23.49 3.68L21.11 3.68L21.11 3.68Q20.56 3.68 20.42 3.77L20.42 3.77L20.42 3.77Q20.30 3.86 20.30 4.33L20.30 4.33L20.30 6.28L20.30 6.28Q20.30 6.69 20.35 6.76L20.35 6.76L20.35 6.76Q20.42 6.84 20.76 6.84L20.76 6.84L22.87 6.84L22.87 6.84Q23.24 6.84 23.32 6.73L23.32 6.73L23.32 6.73Q23.40 6.63 23.41 6.14L23.41 6.14L23.41 5.61L23.92 5.63L23.92 8.97L23.41 8.97L23.41 8.24L23.41 8.24Q23.41 7.66 23.33 7.57L23.33 7.57L23.33 7.57Q23.25 7.46 22.90 7.46L22.90 7.46L20.80 7.46L20.80 7.46Q20.47 7.46 20.38 7.54L20.38 7.54L20.38 7.54Q20.30 7.63 20.30 7.89L20.30 7.89L20.30 11.20L20.30 11.20Q20.30 11.57 20.38 11.67L20.38 11.67L20.38 11.67Q20.47 11.77 20.74 11.77L20.74 11.77L20.74 11.77Q23.66 11.75 24.19 11.69L24.19 11.69L24.19 11.69Q24.71 11.63 24.79 11.38L24.79 11.38L24.79 11.36L24.80 11.35L25.03 10.17L25.50 10.25L25.16 12.41L18.05 12.41L18.05 11.87L18.42 11.87L18.42 11.87Q18.98 11.87 19.07 11.80L19.07 11.80L19.07 11.80Q19.16 11.72 19.16 11.33L19.16 11.33L19.16 4.24L19.16 4.24Q19.16 3.82 19.01 3.73L19.01 3.73L19.01 3.73Q18.84 3.64 18.18 3.64L18.18 3.64L17.79 3.64ZM33.87 3.64L33.38 3.64L33.39 3.08L36.98 3.08L36.98 3.64L36.35 3.64L36.35 3.64Q35.97 3.64 35.86 3.72L35.86 3.72L35.86 3.72Q35.75 3.80 35.75 4.16L35.75 4.16L35.75 11.22L35.75 11.22Q35.75 11.57 35.83 11.67L35.83 11.67L35.83 11.67Q35.92 11.77 36.21 11.77L36.21 11.77L36.21 11.77Q39.08 11.74 39.74 11.63L39.74 11.63L39.74 11.63Q39.95 11.61 40.03 11.39L40.03 11.39L40.03 11.39Q40.11 11.17 40.31 10.05L40.31 10.05L40.80 10.08L40.34 12.41L33.58 12.41L33.56 11.87L33.95 11.87L33.95 11.87Q34.46 11.87 34.53 11.80L34.53 11.80L34.53 11.80Q34.61 11.72 34.62 11.33L34.62 11.33L34.62 4.09L34.62 4.09Q34.62 3.80 34.46 3.72L34.46 3.72L34.46 3.72Q34.31 3.64 33.87 3.64L33.87 3.64ZM48.55 12.41L48.54 11.87L48.71 11.87L48.71 11.87Q49.10 11.87 49.23 11.73L49.23 11.73L49.23 11.73Q49.35 11.57 49.68 10.83L49.68 10.83L50.59 8.82L51.17 7.53L51.17 7.53Q51.43 6.97 51.47 6.86L51.47 6.86L51.47 6.86Q51.54 6.70 51.59 6.60L51.59 6.60L51.59 6.60Q51.65 6.51 51.66 6.45L51.66 6.45L51.75 6.21L53.18 2.74L53.48 2.74L53.48 2.74Q54.33 4.98 56.52 10.25L56.52 10.25L56.52 10.25Q56.97 11.34 57.16 11.64L57.16 11.64L57.16 11.64Q57.30 11.87 57.74 11.87L57.74 11.87L57.95 11.87L57.93 12.41L54.74 12.41L54.76 11.87L55.17 11.87L55.17 11.87Q55.79 11.87 55.79 11.70L55.79 11.70L55.79 11.70Q55.79 11.63 55.65 11.27L55.65 11.27L54.61 8.72L51.37 8.72L50.26 11.18L50.26 11.18Q50.12 11.50 50.12 11.63L50.12 11.63L50.12 11.63Q50.12 11.79 50.22 11.83L50.22 11.83L50.22 11.83Q50.31 11.87 50.70 11.87L50.70 11.87L51.27 11.87L51.27 12.41L48.55 12.41ZM53.05 4.79L51.63 8.10L54.37 8.10L53.05 4.79ZM65.82 3.64L65.82 3.64L65.84 3.08L68.97 3.08L68.97 3.64L68.69 3.64L68.69 3.64Q68.24 3.64 68.13 3.66L68.13 3.66L68.13 3.66Q67.96 3.71 67.96 3.82L67.96 3.82L67.96 3.82Q67.96 3.89 68.22 4.31L68.22 4.31L70.22 7.46L72.67 3.99L72.67 3.99Q72.75 3.83 72.75 3.82L72.75 3.82L72.75 3.82Q72.75 3.64 71.84 3.64L71.84 3.64L71.62 3.64L71.61 3.08L74.15 3.08L74.15 3.64L74.08 3.64L74.08 3.64Q73.73 3.64 73.59 3.72L73.59 3.72L73.59 3.72Q73.43 3.80 73.14 4.22L73.14 4.22L70.42 8.17L70.42 11.22L70.42 11.22Q70.42 11.66 70.53 11.77L70.53 11.77L70.53 11.77Q70.62 11.87 71.24 11.87L71.24 11.87L71.87 11.87L71.85 12.41L67.92 12.41L67.94 11.87L68.50 11.87L68.50 11.87Q69.03 11.87 69.16 11.79L69.16 11.79L69.16 11.79Q69.28 11.70 69.28 11.25L69.28 11.25L69.28 8.06L66.99 4.49L66.99 4.49Q66.57 3.84 66.44 3.73L66.44 3.73L66.44 3.73Q66.33 3.64 65.82 3.64ZM81.90 3.64L81.89 3.08L89.10 3.08L89.10 3.08Q89.11 4.14 89.17 5.28L89.17 5.28L88.62 5.30L88.62 5.30Q88.61 4.66 88.55 4.25L88.55 4.25L88.55 4.25Q88.51 3.89 88.46 3.80L88.46 3.80L88.46 3.80Q88.40 3.71 88.29 3.69L88.29 3.69L88.29 3.69Q88.19 3.68 87.60 3.68L87.60 3.68L85.22 3.68L85.22 3.68Q84.68 3.68 84.53 3.77L84.53 3.77L84.53 3.77Q84.41 3.86 84.41 4.33L84.41 4.33L84.41 6.28L84.41 6.28Q84.41 6.69 84.46 6.76L84.46 6.76L84.46 6.76Q84.53 6.84 84.88 6.84L84.88 6.84L86.99 6.84L86.99 6.84Q87.35 6.84 87.43 6.73L87.43 6.73L87.43 6.73Q87.51 6.63 87.52 6.14L87.52 6.14L87.52 5.61L88.03 5.63L88.03 8.97L87.52 8.97L87.52 8.24L87.52 8.24Q87.52 7.66 87.45 7.57L87.45 7.57L87.45 7.57Q87.36 7.46 87.01 7.46L87.01 7.46L84.92 7.46L84.92 7.46Q84.58 7.46 84.50 7.54L84.50 7.54L84.50 7.54Q84.41 7.63 84.41 7.89L84.41 7.89L84.41 11.20L84.41 11.20Q84.41 11.57 84.50 11.67L84.50 11.67L84.50 11.67Q84.58 11.77 84.85 11.77L84.85 11.77L84.85 11.77Q87.77 11.75 88.30 11.69L88.30 11.69L88.30 11.69Q88.82 11.63 88.90 11.38L88.90 11.38L88.91 11.36L88.92 11.35L89.14 10.17L89.62 10.25L89.27 12.41L82.17 12.41L82.17 11.87L82.54 11.87L82.54 11.87Q83.10 11.87 83.18 11.80L83.18 11.80L83.18 11.80Q83.28 11.72 83.28 11.33L83.28 11.33L83.28 4.24L83.28 4.24Q83.28 3.82 83.13 3.73L83.13 3.73L83.13 3.73Q82.95 3.64 82.30 3.64L82.30 3.64L81.90 3.64ZM97.54 3.64L97.49 3.08L101.27 3.08L101.27 3.08Q102.59 3.08 103.46 3.19L103.46 3.19L103.46 3.19Q104.28 3.29 104.97 3.69L104.97 3.69L104.97 3.69Q105.92 4.27 106.43 5.24L106.43 5.24L106.43 5.24Q106.92 6.21 106.92 7.39L106.92 7.39L106.92 7.39Q106.92 8.05 106.78 8.65L106.78 8.65L106.78 8.65Q106.62 9.29 106.23 9.98L106.23 9.98L106.23 9.98Q105.80 10.73 105.24 11.21L105.24 11.21L105.24 11.21Q104.61 11.76 103.64 12.08L103.64 12.08L103.64 12.08Q102.63 12.41 101.36 12.41L101.36 12.41L97.75 12.41L97.73 11.87L98.11 11.87L98.11 11.87Q98.63 11.87 98.73 11.79L98.73 11.79L98.73 11.79Q98.84 11.70 98.84 11.25L98.84 11.25L98.84 4.14L98.84 4.14Q98.84 3.77 98.75 3.71L98.75 3.71L98.75 3.71Q98.64 3.64 98.12 3.64L98.12 3.64L97.54 3.64ZM99.98 4.39L99.98 11.22L99.98 11.22Q99.98 11.67 100.14 11.77L100.14 11.77L100.14 11.77Q100.30 11.87 101.17 11.87L101.17 11.87L101.17 11.87Q102.22 11.87 103.01 11.61L103.01 11.61L103.01 11.61Q103.87 11.35 104.30 10.99L104.30 10.99L104.30 10.99Q104.79 10.58 105.10 10.05L105.10 10.05L105.10 10.05Q105.40 9.52 105.53 8.96L105.53 8.96L105.53 8.96Q105.66 8.41 105.66 7.82L105.66 7.82L105.66 7.82Q105.66 7.03 105.39 6.34L105.39 6.34L105.39 6.34Q105.12 5.65 104.60 5.05L104.60 5.05L104.60 5.05Q104.06 4.46 103.15 4.09L103.15 4.09L103.15 4.09Q102.23 3.73 101.07 3.73L101.07 3.73L100.55 3.73L100.55 3.73Q100.19 3.73 100.08 3.85L100.08 3.85L100.08 3.85Q99.98 3.99 99.98 4.39L99.98 4.39ZM128.19 12.41L124.46 12.41L124.46 11.87L124.90 11.87L124.90 11.87Q125.28 11.87 125.33 11.81L125.33 11.81L125.33 11.81Q125.40 11.74 125.41 11.46L125.41 11.46L125.41 4.14L125.41 4.14Q125.41 3.81 125.32 3.72L125.32 3.72L125.32 3.72Q125.23 3.64 124.87 3.64L124.87 3.64L124.50 3.64L124.52 3.08L127.40 3.08L127.40 3.08Q128.55 3.08 129.20 3.19L129.20 3.19L129.20 3.19Q129.80 3.28 130.27 3.68L130.27 3.68L130.27 3.68Q131.46 4.64 131.46 6.19L131.46 6.19L131.46 6.19Q131.46 7.23 130.70 7.98L130.70 7.98L130.70 7.98Q129.92 8.74 128.51 8.73L128.51 8.73L128.51 8.73Q128.34 8.73 127.92 8.70L127.92 8.70L127.92 8.70Q127.81 8.69 127.39 8.62L127.39 8.62L127.39 8.62Q127.05 8.55 126.96 8.54L126.96 8.54L126.96 8.54Q126.66 8.47 126.65 8.46L126.65 8.46L126.53 8.44L126.53 11.46L126.53 11.46Q126.53 11.74 126.66 11.81L126.66 11.81L126.66 11.81Q126.77 11.87 127.49 11.87L127.49 11.87L128.19 11.87L128.19 12.41ZM126.53 4.28L126.53 8.02L126.53 8.02Q126.88 8.29 127.85 8.29L127.85 8.29L127.85 8.29Q128.99 8.29 129.56 7.75L129.56 7.75L129.56 7.75Q130.15 7.21 130.15 6.16L130.15 6.16L130.15 6.16Q130.15 4.98 129.24 4.31L129.24 4.31L129.24 4.31Q128.34 3.64 126.96 3.64L126.96 3.64L126.96 3.64Q126.70 3.64 126.62 3.75L126.62 3.75L126.62 3.75Q126.54 3.84 126.53 4.28L126.53 4.28ZM139.77 3.64L139.38 3.64L139.40 3.08L142.62 3.08L142.62 3.08Q143.75 3.08 144.35 3.21L144.35 3.21L144.35 3.21Q145.00 3.37 145.46 3.75L145.46 3.75L145.46 3.75Q146.47 4.57 146.47 5.71L146.47 5.71L146.47 5.71Q146.47 6.43 146.00 7.04L146.00 7.04L146.00 7.04Q145.50 7.66 144.47 7.92L144.47 7.92L147.16 11.49L147.16 11.49Q147.46 11.87 147.76 11.87L147.76 11.87L148.36 11.87L148.39 12.41L146.36 12.41L143.36 8.10L143.19 8.10L143.19 8.10Q143.15 8.10 143.10 8.11L143.10 8.11L143.10 8.11Q143.04 8.11 143.03 8.11L143.03 8.11L143.03 8.11Q142.15 8.11 141.75 8.03L141.75 8.03L141.75 11.46L141.75 11.46Q141.75 11.76 141.89 11.81L141.89 11.81L141.89 11.81Q142.02 11.87 142.72 11.87L142.72 11.87L143.43 11.87L143.40 12.41L139.68 12.41L139.68 11.87L140 11.87L140 11.87Q140.46 11.87 140.53 11.81L140.53 11.81L140.53 11.81Q140.62 11.74 140.62 11.46L140.62 11.46L140.62 4.14L140.62 4.14Q140.62 3.82 140.42 3.73L140.42 3.73L140.42 3.73Q140.20 3.64 139.77 3.64L139.77 3.64ZM141.75 4.28L141.75 7.57L141.75 7.57Q141.93 7.70 142.65 7.71L142.65 7.71L142.65 7.71Q143.92 7.71 144.50 7.27L144.50 7.27L144.50 7.27Q145.09 6.84 145.09 5.92L145.09 5.92L145.09 5.92Q145.09 4.92 144.31 4.27L144.31 4.27L144.31 4.27Q143.55 3.64 142.17 3.64L142.17 3.64L142.17 3.64Q141.92 3.64 141.84 3.75L141.84 3.75L141.84 3.75Q141.76 3.84 141.75 4.28L141.75 4.28ZM156.73 3.64L156.14 3.64L156.15 3.08L159.67 3.08L159.67 3.64L159.43 3.64L159.43 3.64Q158.89 3.64 158.72 3.73L158.72 3.73L158.72 3.73Q158.58 3.81 158.58 4.28L158.58 4.28L158.58 11.22L158.58 11.22Q158.58 11.68 158.69 11.77L158.69 11.77L158.69 11.77Q158.80 11.87 159.33 11.87L159.33 11.87L159.88 11.87L159.89 12.41L156.31 12.41L156.30 11.87L156.66 11.87L156.66 11.87Q157.22 11.87 157.33 11.77L157.33 11.77L157.33 11.77Q157.45 11.67 157.45 11.25L157.45 11.25L157.45 4.14L157.45 4.14Q157.45 3.77 157.34 3.71L157.34 3.71L157.34 3.71Q157.23 3.64 156.73 3.64L156.73 3.64ZM168.01 7.83L168.01 7.83L168.01 7.83Q168.01 6.62 168.42 5.68L168.42 5.68L168.42 5.68Q168.83 4.72 169.52 4.12L169.52 4.12L169.52 4.12Q170.21 3.51 171.08 3.19L171.08 3.19L171.08 3.19Q171.92 2.88 172.87 2.88L172.87 2.88L172.87 2.88Q174.13 2.88 175.18 3.40L175.18 3.40L175.18 3.40Q176.26 3.93 176.97 5.07L176.97 5.07L176.97 5.07Q177.67 6.17 177.67 7.75L177.67 7.75L177.67 7.75Q177.67 8.70 177.37 9.54L177.37 9.54L177.37 9.54Q177.06 10.38 176.45 11.10L176.45 11.10L176.45 11.10Q175.85 11.81 174.91 12.22L174.91 12.22L174.91 12.22Q173.95 12.63 172.76 12.64L172.76 12.64L172.76 12.64Q171.62 12.64 170.69 12.23L170.69 12.23L170.69 12.23Q169.75 11.83 169.19 11.14L169.19 11.14L169.19 11.14Q168.62 10.45 168.32 9.60L168.32 9.60L168.32 9.60Q168.01 8.72 168.01 7.83ZM169.27 7.38L169.27 7.38L169.27 7.38Q169.27 8.52 169.70 9.60L169.70 9.60L169.70 9.60Q170.11 10.64 171.04 11.33L171.04 11.33L171.04 11.33Q171.94 12.03 173.13 12.04L173.13 12.04L173.13 12.04Q174.51 12.04 175.44 11.01L175.44 11.01L175.44 11.01Q176.39 9.97 176.39 8.10L176.39 8.10L176.39 8.10Q176.39 5.99 175.23 4.72L175.23 4.72L175.23 4.72Q174.08 3.46 172.57 3.45L172.57 3.45L172.57 3.45Q172.05 3.45 171.51 3.65L171.51 3.65L171.51 3.65Q170.97 3.85 170.46 4.25L170.46 4.25L170.46 4.25Q169.91 4.68 169.59 5.48L169.59 5.48L169.59 5.48Q169.27 6.27 169.27 7.38ZM186.12 3.64L185.73 3.64L185.75 3.08L188.97 3.08L188.97 3.08Q190.10 3.08 190.70 3.21L190.70 3.21L190.70 3.21Q191.34 3.37 191.81 3.75L191.81 3.75L191.81 3.75Q192.81 4.57 192.81 5.71L192.81 5.71L192.81 5.71Q192.81 6.43 192.34 7.04L192.34 7.04L192.34 7.04Q191.85 7.66 190.82 7.92L190.82 7.92L193.50 11.49L193.50 11.49Q193.81 11.87 194.11 11.87L194.11 11.87L194.71 11.87L194.74 12.41L192.71 12.41L189.71 8.10L189.54 8.10L189.54 8.10Q189.50 8.10 189.44 8.11L189.44 8.11L189.44 8.11Q189.39 8.11 189.38 8.11L189.38 8.11L189.38 8.11Q188.49 8.11 188.10 8.03L188.10 8.03L188.10 11.46L188.10 11.46Q188.10 11.76 188.24 11.81L188.24 11.81L188.24 11.81Q188.36 11.87 189.07 11.87L189.07 11.87L189.78 11.87L189.75 12.41L186.03 12.41L186.03 11.87L186.35 11.87L186.35 11.87Q186.81 11.87 186.88 11.81L186.88 11.81L186.88 11.81Q186.96 11.74 186.96 11.46L186.96 11.46L186.96 4.14L186.96 4.14Q186.96 3.82 186.77 3.73L186.77 3.73L186.77 3.73Q186.55 3.64 186.12 3.64L186.12 3.64ZM188.10 4.28L188.10 7.57L188.10 7.57Q188.28 7.70 188.99 7.71L188.99 7.71L188.99 7.71Q190.26 7.71 190.85 7.27L190.85 7.27L190.85 7.27Q191.43 6.84 191.43 5.92L191.43 5.92L191.43 5.92Q191.43 4.92 190.66 4.27L190.66 4.27L190.66 4.27Q189.90 3.64 188.52 3.64L188.52 3.64L188.52 3.64Q188.27 3.64 188.19 3.75L188.19 3.75L188.19 3.75Q188.10 3.84 188.10 4.28L188.10 4.28ZM203.08 3.64L202.49 3.64L202.50 3.08L206.01 3.08L206.01 3.64L205.78 3.64L205.78 3.64Q205.24 3.64 205.06 3.73L205.06 3.73L205.06 3.73Q204.93 3.81 204.93 4.28L204.93 4.28L204.93 11.22L204.93 11.22Q204.93 11.68 205.04 11.77L205.04 11.77L205.04 11.77Q205.15 11.87 205.68 11.87L205.68 11.87L206.23 11.87L206.24 12.41L202.66 12.41L202.64 11.87L203.01 11.87L203.01 11.87Q203.57 11.87 203.68 11.77L203.68 11.77L203.68 11.77Q203.79 11.67 203.79 11.25L203.79 11.25L203.79 4.14L203.79 4.14Q203.79 3.77 203.69 3.71L203.69 3.71L203.69 3.71Q203.58 3.64 203.08 3.64L203.08 3.64ZM214.26 5.35L213.76 5.33L213.76 5.33Q213.88 4.17 213.96 3.08L213.96 3.08L222.04 3.08L222.04 3.08Q221.96 4.13 221.94 4.53L221.94 4.53L221.94 4.53Q221.89 5.26 221.87 5.32L221.87 5.32L221.38 5.30L221.38 5.30Q221.46 4.34 221.46 4.16L221.46 4.16L221.46 4.16Q221.46 3.88 221.31 3.79L221.31 3.79L221.31 3.79Q221.14 3.69 220.74 3.69L220.74 3.69L219.13 3.69L219.13 3.69Q218.63 3.69 218.50 3.79L218.50 3.79L218.50 3.79Q218.41 3.87 218.40 4.36L218.40 4.36L218.40 11.22L218.40 11.22Q218.40 11.66 218.54 11.76L218.54 11.76L218.54 11.76Q218.70 11.87 219.21 11.87L219.21 11.87L219.78 11.87L219.79 12.41L216.10 12.40L216.10 11.87L216.32 11.87L216.32 11.87Q216.99 11.87 217.13 11.79L217.13 11.79L217.13 11.79Q217.27 11.70 217.27 11.28L217.27 11.28L217.27 4.48L217.27 4.48Q217.27 3.92 217.17 3.80L217.17 3.80L217.17 3.80Q217.08 3.69 216.65 3.69L216.65 3.69L215.18 3.69L215.18 3.69Q215.00 3.69 214.93 3.71L214.93 3.71L214.93 3.71Q214.86 3.72 214.75 3.72L214.75 3.72L214.75 3.72Q214.72 3.72 214.61 3.79L214.61 3.79L214.61 3.79Q214.53 3.84 214.50 3.86L214.50 3.86L214.50 3.86Q214.47 3.88 214.43 3.99L214.43 3.99L214.43 3.99Q214.40 4.05 214.38 4.14L214.38 4.14L214.38 4.14Q214.35 4.21 214.33 4.36L214.33 4.36L214.33 4.36Q214.30 4.59 214.30 4.61L214.30 4.61L214.30 4.61Q214.30 4.80 214.29 4.95L214.29 4.95L214.29 4.95Q214.29 5.02 214.28 5.15L214.28 5.15L214.28 5.15Q214.27 5.29 214.26 5.35L214.26 5.35ZM229.93 3.64L229.93 3.64L229.94 3.08L233.08 3.08L233.08 3.64L232.80 3.64L232.80 3.64Q232.35 3.64 232.24 3.66L232.24 3.66L232.24 3.66Q232.07 3.71 232.07 3.82L232.07 3.82L232.07 3.82Q232.07 3.89 232.32 4.31L232.32 4.31L234.32 7.46L236.77 3.99L236.77 3.99Q236.85 3.83 236.86 3.82L236.86 3.82L236.86 3.82Q236.86 3.64 235.94 3.64L235.94 3.64L235.72 3.64L235.71 3.08L238.25 3.08L238.25 3.64L238.18 3.64L238.18 3.64Q237.84 3.64 237.69 3.72L237.69 3.72L237.69 3.72Q237.54 3.80 237.25 4.22L237.25 4.22L234.52 8.17L234.52 11.22L234.52 11.22Q234.52 11.66 234.63 11.77L234.63 11.77L234.63 11.77Q234.73 11.87 235.34 11.87L235.34 11.87L235.98 11.87L235.96 12.41L232.03 12.41L232.04 11.87L232.60 11.87L232.60 11.87Q233.13 11.87 233.26 11.79L233.26 11.79L233.26 11.79Q233.39 11.70 233.39 11.25L233.39 11.25L233.39 8.06L231.09 4.49L231.09 4.49Q230.67 3.84 230.54 3.73L230.54 3.73L230.54 3.73Q230.43 3.64 229.93 3.64ZM255.94 7.83L255.94 7.83L255.94 7.83Q255.94 6.62 256.35 5.68L256.35 5.68L256.35 5.68Q256.76 4.72 257.46 4.12L257.46 4.12L257.46 4.12Q258.15 3.51 259.01 3.19L259.01 3.19L259.01 3.19Q259.85 2.88 260.80 2.88L260.80 2.88L260.80 2.88Q262.06 2.88 263.11 3.40L263.11 3.40L263.11 3.40Q264.19 3.93 264.90 5.07L264.90 5.07L264.90 5.07Q265.60 6.17 265.60 7.75L265.60 7.75L265.60 7.75Q265.60 9.22 264.90 10.38L264.90 10.38L264.90 10.38Q264.22 11.53 263.08 12.11L263.08 12.11L262.20 12.43L262.20 12.43Q262.80 12.68 263.57 13.30L263.57 13.30L263.57 13.30Q264.43 13.98 265.10 14.43L265.10 14.43L265.10 14.43Q265.79 14.91 266.26 14.91L266.26 14.91L266.26 14.91Q266.54 14.91 266.69 14.83L266.69 14.83L266.69 14.83Q266.89 14.75 266.93 14.75L266.93 14.75L266.93 14.75Q267.05 14.75 267.06 14.91L267.06 14.91L267.06 14.91Q267.06 15.00 267.00 15.11L267.00 15.11L267.00 15.11Q266.94 15.25 266.81 15.38L266.81 15.38L266.81 15.38Q266.66 15.53 266.34 15.63L266.34 15.63L266.34 15.63Q266.01 15.74 265.58 15.74L265.58 15.74L265.58 15.74Q265.04 15.74 264.46 15.49L264.46 15.49L264.46 15.49Q263.87 15.24 263.55 15.00L263.55 15.00L263.55 15.00Q263.33 14.85 262.62 14.23L262.62 14.23L262.62 14.23Q262.46 14.10 262.28 13.94L262.28 13.94L262.28 13.94Q262.10 13.79 262.01 13.70L262.01 13.70L262.01 13.70Q261.92 13.62 261.88 13.59L261.88 13.59L261.88 13.59Q261.37 13.19 260.98 12.92L260.98 12.92L260.98 12.92Q260.72 12.74 260.53 12.68L260.53 12.68L260.53 12.68Q260.35 12.63 260.06 12.58L260.06 12.58L260.06 12.58Q259.49 12.52 259.43 12.50L259.43 12.50L259.43 12.50Q258.82 12.36 258.19 12.00L258.19 12.00L258.19 12.00Q257.55 11.62 257.07 11.08L257.07 11.08L257.07 11.08Q256.57 10.52 256.27 9.67L256.27 9.67L256.27 9.67Q255.94 8.78 255.94 7.83ZM257.20 7.38L257.20 7.38L257.20 7.38Q257.20 8.52 257.63 9.60L257.63 9.60L257.63 9.60Q258.04 10.64 258.97 11.33L258.97 11.33L258.97 11.33Q259.88 12.03 261.06 12.04L261.06 12.04L261.06 12.04Q262.44 12.04 263.38 11.01L263.38 11.01L263.38 11.01Q264.33 9.97 264.33 8.10L264.33 8.10L264.33 8.10Q264.33 5.99 263.16 4.72L263.16 4.72L263.16 4.72Q262.01 3.46 260.50 3.45L260.50 3.45L260.50 3.45Q259.98 3.45 259.44 3.65L259.44 3.65L259.44 3.65Q258.90 3.85 258.39 4.25L258.39 4.25L258.39 4.25Q257.84 4.68 257.52 5.48L257.52 5.48L257.52 5.48Q257.20 6.27 257.20 7.38ZM274.10 3.64L273.72 3.64L273.72 3.08L277.08 3.08L277.09 3.64L276.56 3.64L276.56 3.64Q276.13 3.64 275.97 3.73L275.97 3.73L275.97 3.73Q275.80 3.83 275.80 4.16L275.80 4.16L275.80 9.33L275.80 9.33Q275.80 9.63 275.84 9.78L275.84 9.78L275.84 9.78Q275.88 10.01 276.04 10.41L276.04 10.41L276.04 10.41Q276.21 10.80 276.51 11.09L276.51 11.09L276.51 11.09Q276.81 11.40 277.38 11.63L277.38 11.63L277.38 11.63Q277.95 11.85 278.73 11.85L278.73 11.85L278.73 11.85Q279.58 11.85 280.13 11.67L280.13 11.67L280.13 11.67Q280.69 11.48 281.00 11.22L281.00 11.22L281.00 11.22Q281.31 10.96 281.45 10.49L281.45 10.49L281.45 10.49Q281.62 9.95 281.63 9.66L281.63 9.66L281.63 9.66Q281.65 9.18 281.66 8.67L281.66 8.67L281.66 4.14L281.66 4.14Q281.66 3.81 281.52 3.72L281.52 3.72L281.52 3.72Q281.37 3.64 280.89 3.64L280.89 3.64L280.40 3.64L280.42 3.08L283.06 3.08L283.06 3.64L282.86 3.64L282.86 3.64Q282.54 3.64 282.43 3.75L282.43 3.75L282.43 3.75Q282.32 3.86 282.32 4.25L282.32 4.25L282.32 9.22L282.32 9.22Q282.32 12.67 278.73 12.67L278.73 12.67L278.73 12.67Q276.56 12.67 275.61 11.76L275.61 11.76L275.61 11.76Q274.67 10.86 274.67 9.41L274.67 9.41L274.67 4.14L274.67 4.14Q274.67 3.81 274.57 3.72L274.57 3.72L274.57 3.72Q274.46 3.64 274.10 3.64L274.10 3.64ZM290.81 3.64L290.79 3.08L298.01 3.08L298.01 3.08Q298.02 4.14 298.07 5.28L298.07 5.28L297.53 5.30L297.53 5.30Q297.51 4.66 297.46 4.25L297.46 4.25L297.46 4.25Q297.42 3.89 297.36 3.80L297.36 3.80L297.36 3.80Q297.31 3.71 297.19 3.69L297.19 3.69L297.19 3.69Q297.10 3.68 296.51 3.68L296.51 3.68L294.13 3.68L294.13 3.68Q293.58 3.68 293.44 3.77L293.44 3.77L293.44 3.77Q293.32 3.86 293.32 4.33L293.32 4.33L293.32 6.28L293.32 6.28Q293.32 6.69 293.37 6.76L293.37 6.76L293.37 6.76Q293.44 6.84 293.78 6.84L293.78 6.84L295.89 6.84L295.89 6.84Q296.26 6.84 296.34 6.73L296.34 6.73L296.34 6.73Q296.42 6.63 296.43 6.14L296.43 6.14L296.43 5.61L296.94 5.63L296.94 8.97L296.43 8.97L296.43 8.24L296.43 8.24Q296.43 7.66 296.35 7.57L296.35 7.57L296.35 7.57Q296.27 7.46 295.92 7.46L295.92 7.46L293.82 7.46L293.82 7.46Q293.49 7.46 293.40 7.54L293.40 7.54L293.40 7.54Q293.32 7.63 293.32 7.89L293.32 7.89L293.32 11.20L293.32 11.20Q293.32 11.57 293.40 11.67L293.40 11.67L293.40 11.67Q293.49 11.77 293.76 11.77L293.76 11.77L293.76 11.77Q296.68 11.75 297.21 11.69L297.21 11.69L297.21 11.69Q297.73 11.63 297.81 11.38L297.81 11.38L297.81 11.36L297.82 11.35L298.05 10.17L298.53 10.25L298.18 12.41L291.07 12.41L291.07 11.87L291.44 11.87L291.44 11.87Q292.00 11.87 292.09 11.80L292.09 11.80L292.09 11.80Q292.18 11.72 292.18 11.33L292.18 11.33L292.18 4.24L292.18 4.24Q292.18 3.82 292.03 3.73L292.03 3.73L292.03 3.73Q291.86 3.64 291.20 3.64L291.20 3.64L290.81 3.64ZM306.78 3.64L306.40 3.64L306.40 3.08L309.76 3.08L309.78 3.64L309.24 3.64L309.24 3.64Q308.81 3.64 308.66 3.73L308.66 3.73L308.66 3.73Q308.49 3.83 308.49 4.16L308.49 4.16L308.49 9.33L308.49 9.33Q308.49 9.63 308.52 9.78L308.52 9.78L308.52 9.78Q308.56 10.01 308.72 10.41L308.72 10.41L308.72 10.41Q308.90 10.80 309.19 11.09L309.19 11.09L309.19 11.09Q309.50 11.40 310.06 11.63L310.06 11.63L310.06 11.63Q310.63 11.85 311.41 11.85L311.41 11.85L311.41 11.85Q312.27 11.85 312.81 11.67L312.81 11.67L312.81 11.67Q313.37 11.48 313.68 11.22L313.68 11.22L313.68 11.22Q313.99 10.96 314.13 10.49L314.13 10.49L314.13 10.49Q314.30 9.95 314.31 9.66L314.31 9.66L314.31 9.66Q314.34 9.18 314.34 8.67L314.34 8.67L314.34 4.14L314.34 4.14Q314.34 3.81 314.20 3.72L314.20 3.72L314.20 3.72Q314.05 3.64 313.57 3.64L313.57 3.64L313.08 3.64L313.11 3.08L315.74 3.08L315.74 3.64L315.55 3.64L315.55 3.64Q315.23 3.64 315.11 3.75L315.11 3.75L315.11 3.75Q315 3.86 315 4.25L315 4.25L315 9.22L315 9.22Q315 12.67 311.41 12.67L311.41 12.67L311.41 12.67Q309.24 12.67 308.29 11.76L308.29 11.76L308.29 11.76Q307.36 10.86 307.36 9.41L307.36 9.41L307.36 4.14L307.36 4.14Q307.36 3.81 307.25 3.72L307.25 3.72L307.25 3.72Q307.15 3.64 306.78 3.64L306.78 3.64ZM323.49 3.64L323.48 3.08L330.69 3.08L330.69 3.08Q330.70 4.14 330.76 5.28L330.76 5.28L330.21 5.30L330.21 5.30Q330.20 4.66 330.14 4.25L330.14 4.25L330.14 4.25Q330.10 3.89 330.05 3.80L330.05 3.80L330.05 3.80Q329.99 3.71 329.88 3.69L329.88 3.69L329.88 3.69Q329.78 3.68 329.19 3.68L329.19 3.68L326.81 3.68L326.81 3.68Q326.27 3.68 326.12 3.77L326.12 3.77L326.12 3.77Q326.00 3.86 326.00 4.33L326.00 4.33L326.00 6.28L326.00 6.28Q326.00 6.69 326.05 6.76L326.05 6.76L326.05 6.76Q326.12 6.84 326.46 6.84L326.46 6.84L328.58 6.84L328.58 6.84Q328.94 6.84 329.02 6.73L329.02 6.73L329.02 6.73Q329.10 6.63 329.11 6.14L329.11 6.14L329.11 5.61L329.62 5.63L329.62 8.97L329.11 8.97L329.11 8.24L329.11 8.24Q329.11 7.66 329.03 7.57L329.03 7.57L329.03 7.57Q328.95 7.46 328.60 7.46L328.60 7.46L326.50 7.46L326.50 7.46Q326.17 7.46 326.08 7.54L326.08 7.54L326.08 7.54Q326.00 7.63 326.00 7.89L326.00 7.89L326.00 11.20L326.00 11.20Q326.00 11.57 326.08 11.67L326.08 11.67L326.08 11.67Q326.17 11.77 326.44 11.77L326.44 11.77L326.44 11.77Q329.36 11.75 329.89 11.69L329.89 11.69L329.89 11.69Q330.41 11.63 330.49 11.38L330.49 11.38L330.50 11.36L330.50 11.35L330.73 10.17L331.21 10.25L330.86 12.41L323.76 12.41L323.76 11.87L324.13 11.87L324.13 11.87Q324.69 11.87 324.77 11.80L324.77 11.80L324.77 11.80Q324.86 11.72 324.86 11.33L324.86 11.33L324.86 4.24L324.86 4.24Q324.86 3.82 324.71 3.73L324.71 3.73L324.71 3.73Q324.54 3.64 323.89 3.64L323.89 3.64L323.49 3.64Z"></path></g></svg>